<?xml version="1.0" encoding="UTF-8" standalone="no"?>
<!-- Created with Inkscape (http://www.inkscape.org/) -->

<svg
   xmlns:dc="http://purl.org/dc/elements/1.1/"
   xmlns:cc="http://creativecommons.org/ns#"
   xmlns:rdf="http://www.w3.org/1999/02/22-rdf-syntax-ns#"
   xmlns:svg="http://www.w3.org/2000/svg"
   xmlns="http://www.w3.org/2000/svg"
   xmlns:xlink="http://www.w3.org/1999/xlink"
   xmlns:sodipodi="http://sodipodi.sourceforge.net/DTD/sodipodi-0.dtd"
   xmlns:inkscape="http://www.inkscape.org/namespaces/inkscape"
   width="196"
   height="196"
   id="svg2"
   version="1.1"
   inkscape:version="0.48.4 r9939"
   sodipodi:docname="logo.svg">
  <defs
     id="defs4">
    <linearGradient
       id="linearGradient3904">
      <stop
         style="stop-color:#5bc0de;stop-opacity:1;"
         offset="0"
         id="stop3906" />
      <stop
         style="stop-color:#28a3c7;stop-opacity:1;"
         offset="1"
         id="stop3908" />
    </linearGradient>
    <linearGradient
       id="linearGradient3816">
      <stop
         style="stop-color:#8a8b89;stop-opacity:1;"
         offset="0"
         id="stop3818" />
      <stop
         style="stop-color:#8a8b89;stop-opacity:0.5625;"
         offset="1"
         id="stop3820" />
    </linearGradient>
    <linearGradient
       id="linearGradient3798">
      <stop
         style="stop-color:#921430;stop-opacity:0.69411767;"
         offset="0"
         id="stop3800" />
      <stop
         id="stop3810"
         offset="0.5"
         style="stop-color:#921430;stop-opacity:1;" />
      <stop
         style="stop-color:#921430;stop-opacity:0.734375;"
         offset="1"
         id="stop3802" />
    </linearGradient>
    <radialGradient
       inkscape:collect="always"
       xlink:href="#linearGradient3816"
       id="radialGradient3822"
       cx="100.08707"
       cy="90.261801"
       fx="100.08707"
       fy="90.261801"
       r="70.401834"
       gradientTransform="matrix(1,0,0,0.87019694,0,11.716258)"
       gradientUnits="userSpaceOnUse" />
    <linearGradient
       inkscape:collect="always"
       xlink:href="#linearGradient3904"
       id="linearGradient3910"
       x1="14.142136"
       y1="99.782967"
       x2="186.87822"
       y2="99.782967"
       gradientUnits="userSpaceOnUse" />
  </defs>
  <sodipodi:namedview
     id="base"
     pagecolor="#ffffff"
     bordercolor="#666666"
     borderopacity="1.0"
     inkscape:pageopacity="0.0"
     inkscape:pageshadow="2"
     inkscape:zoom="1.979899"
     inkscape:cx="-22.408259"
     inkscape:cy="166.01992"
     inkscape:document-units="px"
     inkscape:current-layer="layer3"
     showgrid="false"
     inkscape:window-width="1920"
     inkscape:window-height="1031"
     inkscape:window-x="0"
     inkscape:window-y="25"
     inkscape:window-maximized="1" />
  <metadata
     id="metadata7">
    <rdf:RDF>
      <cc:Work
         rdf:about="">
        <dc:format>image/svg+xml</dc:format>
        <dc:type
           rdf:resource="http://purl.org/dc/dcmitype/StillImage" />
        <dc:title />
      </cc:Work>
    </rdf:RDF>
  </metadata>
  <g
     inkscape:label="Layer#2"
     id="g3812"
     inkscape:groupmode="layer">
    <path
       transform="matrix(1.0999439,0,0,1.1096779,-12.555556,-12.726953)"
       d="m 186.87822,99.782967 a 86.368042,85.610428 0 1 1 -172.736084,0 86.368042,85.610428 0 1 1 172.736084,0 z"
       sodipodi:ry="85.610428"
       sodipodi:rx="86.368042"
       sodipodi:cy="99.782967"
       sodipodi:cx="100.51018"
       id="path3814"
       style="fill:#8a8b89;fill-opacity:1"
       sodipodi:type="arc" />
  </g>
  <g
     inkscape:groupmode="layer"
     id="layer3"
     inkscape:label="Layer#1"
     style="display:inline">
    <path
       sodipodi:type="arc"
       style="fill:url(#linearGradient3910);fill-opacity:1"
       id="path3788"
       sodipodi:cx="100.51018"
       sodipodi:cy="99.782967"
       sodipodi:rx="86.368042"
       sodipodi:ry="85.610428"
       d="m 186.87822,99.782967 a 86.368042,85.610428 0 1 1 -172.736084,0 86.368042,85.610428 0 1 1 172.736084,0 z"
       transform="matrix(1.0999439,0,0,1.1096779,-12.555556,-12.726953)" />
  </g>
  <g
     inkscape:groupmode="layer"
     id="layer2"
     inkscape:label="Layer"
     transform="translate(0,-856.36218)">
    <path
       style="fill:#000000"
       d="m 93.434223,980.237 c 0.04498,-0.47057 -0.800239,-1.24074 -2.043714,-1.86215 -1.310961,-0.65521 -2.41036,-1.69098 -2.879901,-2.71349 -0.590292,-1.28546 -1.165451,-1.74521 -2.582268,-2.06413 -2.5816,-0.58095 -3.706989,-1.60209 -3.873119,-3.51407 -0.124365,-1.43137 -0.489819,-1.79941 -2.672882,-2.69184 -1.901975,-0.77754 -2.870222,-1.56075 -3.906191,-3.15959 -1.187426,-1.83261 -1.594066,-2.10695 -2.948503,-1.98925 -1.819263,0.15803 -3.671115,-1.07087 -4.572956,-3.03476 -0.485672,-1.05758 -1.106276,-1.40524 -2.705394,-1.5155 -1.803238,-0.1244 -2.339312,-0.47597 -4.091864,-2.68352 -1.591232,-2.00427 -2.343521,-2.57005 -3.565293,-2.68095 -1.295156,-0.11777 -1.697587,-0.54025 -2.460772,-2.58368 l -0.912446,-2.44285 -2.286626,-0.0689 c -2.237682,-0.0674 -4.34063,-1.76618 -3.522195,-2.84524 0.568667,-0.74976 -1.299415,-1.86759 -3.125185,-1.87006 -2.027575,-0.003 -3.391682,-1.00381 -3.458972,-2.53855 -0.02972,-0.67742 -1.480253,-2.4577 -3.404527,-4.17853 -4.747173,-4.2452 -8.821296,-10.4602 -8.772628,-13.38239 0.03404,-2.04355 0.586865,-3.04654 4.381712,-7.9497 3.016677,-3.89773 5.597424,-6.57168 8.451893,-8.75715 2.260069,-1.73039 5.529835,-4.69893 7.266237,-6.59687 1.736361,-1.89789 4.595573,-4.55698 6.35377,-5.90906 l 3.196672,-2.45825 -1.156726,5.67561 c -3.804266,18.66601 6.373493,39.40875 31.131807,63.44814 12.381858,12.02233 23.527058,20.36035 40.603638,30.37672 6.21022,3.64263 7.56087,3.35558 2.46394,-0.52369 -8.2811,-6.30245 -27.59681,-24.79413 -37.614545,-36.00922 -7.09206,-7.93985 -14.365326,-17.38363 -17.740799,-23.03523 -8.311822,-13.91635 -10.620143,-29.8184 -6.061426,-41.75671 1.588068,-4.15877 2.34988,-4.39066 5.243817,-1.59642 2.879112,2.77991 3.221938,5.26413 1.8108,13.12125 -0.712485,3.967 -1.039566,7.94125 -0.726837,8.83166 1.244671,3.54351 7.969828,7.2544 15.79016,8.7129 5.024618,0.93707 15.36947,1.23259 15.95858,0.45589 0.21614,-0.28497 0.56482,-1.95766 0.77494,-3.71722 1.00152,-8.38808 7.33731,-12.53692 12.80841,-8.38726 3.5649,2.70386 5.19947,8.08864 5.39622,17.77686 0.0891,4.38915 -0.22574,5.82972 -2.05304,9.39255 -4.19699,8.18323 -4.39108,8.91059 -2.65224,9.93875 1.51486,0.89568 1.6142,0.83407 3.97448,-2.46435 1.33136,-1.8606 2.58057,-3.25986 2.77589,-3.10939 0.19644,0.14899 0.60666,1.30789 0.91407,2.5721 0.42546,1.74986 0.12123,3.16184 -1.27429,5.91436 -2.26563,4.4687 -2.53758,6.01232 -1.23343,7.00148 1.41259,1.07141 3.11683,0.1529 4.61208,-2.48568 1.37476,-2.42594 1.64973,-2.44536 2.70396,-0.19079 0.96263,2.05882 0.82531,2.7709 -1.21423,6.2953 -1.77722,3.07114 -2.03275,5.31271 -0.71914,6.30904 1.38049,1.04706 3.06969,0.0401 4.58492,-2.73317 1.33882,-2.45039 1.56943,-2.61946 2.5542,-1.87255 1.64836,1.25023 1.61442,3.2352 -0.10857,6.34788 -2.53424,4.57826 -2.85101,5.59892 -2.18665,7.04557 0.48513,1.05643 0.96429,1.32677 2.07986,1.17353 1.22015,-0.16758 1.78942,-0.82048 3.59774,-4.12629 l 2.14824,-3.92719 2.17024,2.17308 c 1.19364,1.19521 6.32906,6.1031 11.41205,10.90645 5.54989,5.24443 9.48494,9.39323 9.85031,10.38531 0.78388,2.12846 0.27582,4.85967 -1.67379,8.99797 -2.74105,5.81814 -5.9458,7.88364 -15.00244,9.66914 -4.23791,0.8354 -5.41763,0.7863 -6.85153,-0.2852 -0.95297,-0.7115 -1.92129,-1.045 -2.1525,-0.7401 -0.80975,1.0676 -5.00913,1.173 -6.34566,0.1593 -0.74213,-0.5629 -1.1684,-1.262 -0.94728,-1.5535 0.9135,-1.2044 -1.25509,-1.5866 -3.58535,-0.6318 -2.64258,1.0827 -4.64204,0.2756 -5.85369,-2.3629 -0.47144,-1.0265 -0.87922,-1.1675 -1.95195,-0.6749 -1.96526,0.9025 -6.28519,-0.8382 -7.45192,-3.00274 -0.7323,-1.3585 -1.24812,-1.70952 -2.65515,-1.80655 -1.27954,-0.0882 -3.4719,-1.42926 -8.20209,-5.01696 -5.44497,-4.12984 -6.43421,-5.09687 -6.31801,-6.17599 0.12744,-1.18345 0.0309,-1.25093 -1.287067,-0.89926 -1.595755,0.42602 -6.337988,-2.71173 -6.204711,-4.10549 z"
       id="path3015"
       inkscape:connector-curvature="0" />
    <path
       style="fill:url(#radialGradient3822);fill-opacity:1;stroke:#000000;stroke-opacity:1"
       d="m 146.14516,150.26867 c -1.13574,-0.61519 -1.72316,-0.6662 -2.67542,-0.23232 -2.64268,1.20409 -5.41775,0.40211 -6.25826,-1.8086 -0.4325,-1.13757 -0.68761,-1.25138 -2.12239,-0.94688 -4.84038,1.02726 -4.80439,1.03247 -6.62883,-0.95935 -1.2956,-1.41447 -2.07387,-1.85303 -3.1588,-1.78 -3.04497,0.20495 -3.82905,-0.0781 -6.13322,-2.21397 -1.30762,-1.21212 -3.1909,-2.46697 -4.18509,-2.78857 -3.08438,-0.99774 -12.85567,-8.46202 -13.58353,-10.37644 -0.26023,-0.68444 -1.18074,-1.26952 -2.607085,-1.65705 -1.212653,-0.32948 -2.700118,-1.1223 -3.305482,-1.76184 -5.115826,-5.40461 -8.276619,-8.20396 -10.437563,-9.244 -1.534962,-0.73877 -2.245134,-1.46277 -2.643377,-2.69486 -0.38857,-1.20218 -1.230032,-2.08506 -2.937837,-3.08247 -1.316315,-0.76877 -3.076559,-2.22668 -3.911652,-3.23979 -1.134728,-1.37662 -1.903277,-1.84202 -3.041859,-1.84202 -1.14167,0 -2.07714,-0.56965 -3.732459,-2.27285 -1.527336,-1.57151 -2.623895,-2.27284 -3.553687,-2.27284 -0.969512,0 -1.976935,-0.6969 -3.610423,-2.497561 -1.288272,-1.420113 -2.884157,-2.633397 -3.699326,-2.812442 -1.106331,-0.242987 -1.690649,-0.883555 -2.559367,-2.805739 -1.046045,-2.314547 -1.254404,-2.490859 -2.943617,-2.490859 -2.253736,0 -4.05791,-1.172904 -3.730434,-2.42517 0.255161,-0.975741 -1.550903,-2.120517 -3.34544,-2.120517 -1.692906,0 -2.568713,-0.599242 -3.246436,-2.22126 -0.366232,-0.876519 -2.52785,-3.603471 -4.803594,-6.059896 -5.001215,-5.398282 -7.11249,-8.866004 -7.104728,-11.669357 0.0089,-3.212026 5.515825,-10.303643 13.020164,-16.766872 1.858858,-1.60097 5.935269,-5.358717 9.058692,-8.350549 3.123423,-2.991831 5.879903,-5.439693 6.12551,-5.439693 0.245608,0 0.11141,1.534169 -0.298218,3.409265 -1.634996,7.484301 -0.765756,17.35537 2.234389,25.373645 7.184519,19.201558 30.292872,44.432725 56.642669,61.846055 9.37737,6.19707 16.59211,10.38629 17.88739,10.38629 0.51419,0 0.79418,-0.22767 0.6222,-0.50595 -0.17199,-0.27827 -3.4242,-3.17136 -7.22715,-6.42909 C 119.37602,121.91261 100.80779,103.66989 93.668521,95.538981 76.145822,75.582397 69.816479,63.231301 69.209337,47.809274 c -0.17239,-4.378874 -0.01777,-7.103955 0.557135,-9.81931 0.817596,-3.861597 2.667524,-8.19472 3.619297,-8.47755 0.917482,-0.272639 4.246777,3.483037 4.83856,5.458232 0.438153,1.462425 0.379854,3.148691 -0.263138,7.611172 -1.254458,8.706166 -1.141822,10.632915 0.74738,12.784597 3.411487,3.885468 11.915946,6.695252 21.720679,7.176288 8.8021,0.431843 8.77916,0.440831 9.55375,-3.743054 0.77174,-4.168423 1.96836,-6.652867 4.04662,-8.401607 2.03365,-1.711204 3.54795,-2.066547 5.73322,-1.345345 5.3283,1.758497 7.82587,7.766008 7.86944,18.928674 0.0173,4.434127 -0.032,4.620327 -2.7603,10.428917 -1.52785,3.252799 -2.77792,6.356664 -2.77792,6.897469 0,1.292228 1.65908,2.76199 2.67689,2.371424 0.44146,-0.169407 1.7635,-1.580626 2.93785,-3.136048 1.85579,-2.457984 2.18527,-2.700158 2.51787,-1.850741 0.76012,1.941164 0.42546,4.344726 -1.06154,7.624237 -1.68476,3.715669 -1.96775,6.45586 -0.7163,6.936081 1.688,0.64775 2.73395,0.239992 4.072,-1.58746 0.76273,-1.041719 1.55761,-2.097768 1.76638,-2.346776 0.20878,-0.249002 0.74938,0.322714 1.20134,1.270489 0.80704,1.692385 0.78945,1.790637 -0.98307,5.489257 -1.98787,4.14798 -2.20359,5.59643 -1.01112,6.7889 1.48794,1.48794 3.06276,0.72636 5.07498,-2.45428 1.3356,-2.11111 1.48799,-2.20596 2.32597,-1.44761 1.31549,1.19051 1.10875,2.78455 -0.87104,6.71589 -1.89305,3.75908 -2.22459,6.06317 -1.01671,7.06562 1.53759,1.2761 3.17823,0.15345 5.45185,-3.73056 l 2.17802,-3.72072 11.43057,11.17824 c 12.92693,12.64157 12.86761,12.54668 11.05994,17.68981 -2.51017,7.14188 -5.26426,9.65677 -12.78044,11.67041 -5.38537,1.44278 -8.12576,1.55956 -10.20234,0.43475 l 0,0 z"
       id="path3017"
       inkscape:connector-curvature="0"
       transform="translate(0,856.36218)" />
  </g>
</svg>
